<svg xmlns="http://www.w3.org/2000/svg" xmlns:xlink="http://www.w3.org/1999/xlink" viewBox="0 0 355.49 151"><defs><style>.cls-1{isolation:isolate;}.cls-2{fill:#00a99d;}.cls-3{mix-blend-mode:difference;fill:url(#linear-gradient);}</style><linearGradient id="linear-gradient" x1="362.04" y1="241.3" x2="362.04" y2="629.02" gradientTransform="translate(-109.79 -152.7)" gradientUnits="userSpaceOnUse"><stop offset="0.16" stop-color="#00a99d"/><stop offset="1" stop-color="#fcee21"/></linearGradient></defs><title>iko</title><g class="cls-1"><g id="Layer_1" data-name="Layer 1"><rect class="cls-2" x="42.49" width="28" height="151"/><polygon class="cls-2" points="113.49 151 155.88 151 113.49 101.74 113.49 151"/><path class="cls-2" d="M293.21,345.13a80.72,80.72,0,0,1-17.32-25.54,80.26,80.26,0,0,1,0-62.63,80.72,80.72,0,0,1,17.32-25.54,84.15,84.15,0,0,1,25.64-17.7c1.94-.84,3.92-2.73,5.92-2.73H281.66l-62,71.39L279.7,362h43.14a9.88,9.88,0,0,1-4-.66C309.06,357.17,300.51,352.37,293.21,345.13Z" transform="translate(-74.51 -211)"/><polygon class="cls-2" points="155.88 0 113.49 0 113.49 52.03 155.88 0"/><path class="cls-2" d="M407.5,345.13c-7.31,7.24-15.89,12-25.74,16.21a10,10,0,0,1-4,.66H430V288.28c0,11.09-1.53,21.53-5.77,31.31S414.81,337.89,407.5,345.13Z" transform="translate(-74.51 -211)"/><rect class="cls-3" x="176.75" y="108.75" width="151" height="355.49" transform="translate(464.25 -176.75) rotate(90)"/></g></g></svg>